# xmcd CD database file
#
# Track frame offsets:
#	150
#	19110
#	48127
#	94490
#
# Disc length: 2184 seconds
#
# Revision: 0
# Processed by: cddbd v1.5.2PL0 Copyright (c) Steve Scherf et al.
# Submitted via: CDex 1.70beta2
#
DISCID=29088604
DTITLE=John Lewis - Jazz Abstractions
DYEAR=1960
DGENRE=Jazz
TTITLE0=Abstraction
TTITLE1=Piece For Guitar - Strings 
TTITLE2=Variants on a Theme of John Lewis (Django)
TTITLE3=Variants on a Theme by Thelonious Monk (Criss-Cross)
EXTD=YEAR: 1960
EXTT0=
EXTT1=
EXTT2=
EXTT3=
PLAYORDER=
